<?xml version="1.0"?>
<svg xmlns="http://www.w3.org/2000/svg" xmlns:xlink="http://www.w3.org/1999/xlink" version="1.1" viewBox="0 0 192 192" width="50px" height="50px"><g fill="none" fill-rule="nonzero" stroke="none" stroke-width="1" stroke-linecap="butt" stroke-linejoin="miter" stroke-miterlimit="10" stroke-dasharray="" stroke-dashoffset="0" font-family="none" font-weight="none" font-size="none" text-anchor="none" style="mix-blend-mode: normal"><path d="M0,192v-192h192v192z" fill="none"/><g fill="#ffffff"><g id="surface1"><path d="M153.6,0c-20.985,0 -38.1,16.89 -38.4,37.8c0,0.195 0,0.405 0,0.6c0,14.16 7.665,26.46 19.08,33.12c5.67,3.315 12.285,5.28 19.32,5.28c21.18,0 38.4,-17.22 38.4,-38.4c0,-21.18 -17.22,-38.4 -38.4,-38.4zM107.76,41.64l-39.24,19.68c9.135,7.92 15.135,19.32 15.84,32.16l39.72,-19.92c-9.27,-7.785 -15.405,-19.125 -16.32,-31.92zM38.4,57.6c-21.18,0 -38.4,17.22 -38.4,38.4c0,21.18 17.22,38.4 38.4,38.4c7.875,0 15.135,-2.4 21.24,-6.48c10.305,-6.885 17.16,-18.585 17.16,-31.92c0,-13.785 -7.335,-25.86 -18.24,-32.64c-5.88,-3.66 -12.75,-5.76 -20.16,-5.76zM84.36,98.52c-0.705,12.825 -6.6,24.345 -15.72,32.28l39.12,19.56c0.915,-12.795 6.945,-24.12 16.2,-31.92zM153.6,115.2c-7.92,0 -15.24,2.475 -21.36,6.6c-10.245,6.9 -17.04,18.525 -17.04,31.8c0,0.06 0,0.06 0,0.12c-0.165,0.015 -0.315,0.105 -0.48,0.12l0.48,0.24c0.255,20.955 17.385,37.92 38.4,37.92c21.18,0 38.4,-17.22 38.4,-38.4c0,-21.18 -17.22,-38.4 -38.4,-38.4z"/></g></g></g></svg>
